# xmcd
# Track frame offsets: 
#        182
#        33605
#        64600
#        102025
#        127745
#        155575
# Disc length: 2392 seconds
# Revision: 0
# Processed by: cddbd v1.5.1PL0 Copyright (c) Steve Scherf et al.
# Submitted via: ExactAudioCopy v0.90a9
#
DISCID=43095606
DTITLE=Nine Inch Nails - The Perfect Drug
DYEAR=1900
DGENRE=
TTITLE0=The Perfect Drug [meat beat manifesto remix]
TTITLE1=The Perfect Drug [plug remix]
TTITLE2=The Perfect Drug [nin remix]
TTITLE3=The Perfect Drug [spacetime continuum remix]
TTITLE4=The Perfect Drug [the orb remix]
TTITLE5=The Perfect Drug [original version]
EXTD=
EXTT0=
EXTT1=
EXTT2=
EXTT3=
EXTT4=
EXTT5=
PLAYORDER=
